<svg width="56" height="54" viewBox="0 0 56 54" fill="none" xmlns="http://www.w3.org/2000/svg">
<path d="M25.92 6C25.92 13.9733 21.136 29.92 2 29.92" stroke="white" stroke-width="4" stroke-linecap="round"/>
<path d="M25.92 52C25.92 44.64 21.136 29.92 2 29.92" stroke="white" stroke-width="4" stroke-linecap="round"/>
<path d="M25.92 52C25.92 44.64 30.336 29.92 48 29.92" stroke="white" stroke-width="4" stroke-linecap="round"/>
<path d="M25.92 6C25.92 13.9733 30.336 29.92 48 29.92" stroke="white" stroke-width="4" stroke-linecap="round"/>
<path d="M46.36 1C46.36 4.12 44.488 10.36 37 10.36" stroke="white" stroke-width="2" stroke-linecap="round"/>
<path d="M46.36 19C46.36 16.12 44.488 10.36 37 10.36" stroke="white" stroke-width="2" stroke-linecap="round"/>
<path d="M46.36 19C46.36 16.12 48.088 10.36 55 10.36" stroke="white" stroke-width="2" stroke-linecap="round"/>
<path d="M46.36 1C46.36 4.12 48.088 10.36 55 10.36" stroke="white" stroke-width="2" stroke-linecap="round"/>
</svg>